%TF.GenerationSoftware,KiCad,Pcbnew,9.0.7*%
%TF.CreationDate,2026-02-23T21:39:27-05:00*%
%TF.ProjectId,air-quality-sensor-mcp,6169722d-7175-4616-9c69-74792d73656e,rev?*%
%TF.SameCoordinates,Original*%
%TF.FileFunction,Soldermask,Top*%
%TF.FilePolarity,Negative*%
%FSLAX46Y46*%
G04 Gerber Fmt 4.6, Leading zero omitted, Abs format (unit mm)*
G04 Created by KiCad (PCBNEW 9.0.7) date 2026-02-23 21:39:27*
%MOMM*%
%LPD*%
G01*
G04 APERTURE LIST*
G04 Aperture macros list*
%AMRoundRect*
0 Rectangle with rounded corners*
0 $1 Rounding radius*
0 $2 $3 $4 $5 $6 $7 $8 $9 X,Y pos of 4 corners*
0 Add a 4 corners polygon primitive as box body*
4,1,4,$2,$3,$4,$5,$6,$7,$8,$9,$2,$3,0*
0 Add four circle primitives for the rounded corners*
1,1,$1+$1,$2,$3*
1,1,$1+$1,$4,$5*
1,1,$1+$1,$6,$7*
1,1,$1+$1,$8,$9*
0 Add four rect primitives between the rounded corners*
20,1,$1+$1,$2,$3,$4,$5,0*
20,1,$1+$1,$4,$5,$6,$7,0*
20,1,$1+$1,$6,$7,$8,$9,0*
20,1,$1+$1,$8,$9,$2,$3,0*%
G04 Aperture macros list end*
%ADD10R,3.150000X1.000000*%
%ADD11O,2.500000X1.500000*%
%ADD12RoundRect,0.200000X-0.200000X-0.275000X0.200000X-0.275000X0.200000X0.275000X-0.200000X0.275000X0*%
%ADD13R,1.700000X1.700000*%
%ADD14O,1.700000X1.700000*%
%ADD15RoundRect,0.225000X-0.225000X-0.250000X0.225000X-0.250000X0.225000X0.250000X-0.225000X0.250000X0*%
%ADD16R,1.200000X1.750000*%
%ADD17O,1.200000X1.750000*%
%ADD18RoundRect,0.243750X-0.243750X-0.456250X0.243750X-0.456250X0.243750X0.456250X-0.243750X0.456250X0*%
%ADD19RoundRect,0.250000X-0.250000X-0.475000X0.250000X-0.475000X0.250000X0.475000X-0.250000X0.475000X0*%
G04 APERTURE END LIST*
D10*
%TO.C,U1*%
X58600000Y-53420000D03*
X58600000Y-50880000D03*
X58600000Y-48340000D03*
X58600000Y-45800000D03*
X58600000Y-43260000D03*
X58600000Y-40720000D03*
X58600000Y-38180000D03*
X42575000Y-38180000D03*
X42575000Y-40720000D03*
X42575000Y-43260000D03*
X42575000Y-45800000D03*
X42575000Y-48340000D03*
X42575000Y-50880000D03*
X42575000Y-53420000D03*
D11*
X54940000Y-46100000D03*
X54929000Y-48000000D03*
%TD*%
D12*
%TO.C,R2*%
X43175000Y-30000000D03*
X44825000Y-30000000D03*
%TD*%
D13*
%TO.C,U2*%
X24000000Y-26000000D03*
D14*
X24000000Y-28540000D03*
X24000000Y-31080000D03*
X24000000Y-33620000D03*
%TD*%
D15*
%TO.C,C2*%
X51225000Y-30000000D03*
X52775000Y-30000000D03*
%TD*%
%TO.C,C3*%
X55225000Y-30000000D03*
X56775000Y-30000000D03*
%TD*%
D12*
%TO.C,R3*%
X20000000Y-64825000D03*
X20000000Y-63175000D03*
%TD*%
D13*
%TO.C,U5*%
X24000000Y-50000000D03*
D14*
X24000000Y-52540000D03*
X24000000Y-55080000D03*
X24000000Y-57620000D03*
X24000000Y-60160000D03*
X24000000Y-62700000D03*
%TD*%
D16*
%TO.C,J1*%
X76000000Y-58000000D03*
D17*
X78000000Y-58000000D03*
%TD*%
D12*
%TO.C,R4*%
X70000000Y-64825000D03*
X70000000Y-63175000D03*
%TD*%
D13*
%TO.C,U4*%
X50000000Y-61000000D03*
D14*
X50000000Y-63540000D03*
X50000000Y-66080000D03*
X50000000Y-68620000D03*
%TD*%
D18*
%TO.C,LED2*%
X73062500Y-64000000D03*
X74937500Y-64000000D03*
%TD*%
D19*
%TO.C,C4*%
X65050000Y-54000000D03*
X66950000Y-54000000D03*
%TD*%
D15*
%TO.C,C1*%
X47225000Y-30000000D03*
X48775000Y-30000000D03*
%TD*%
D18*
%TO.C,LED1*%
X65062500Y-64000000D03*
X66937500Y-64000000D03*
%TD*%
D13*
%TO.C,U3*%
X76000000Y-26000000D03*
D14*
X76000000Y-28540000D03*
X76000000Y-31080000D03*
X76000000Y-33620000D03*
%TD*%
D12*
%TO.C,R1*%
X39175000Y-30000000D03*
X40825000Y-30000000D03*
%TD*%
M02*
