%TF.GenerationSoftware,KiCad,Pcbnew,9.0.7*%
%TF.CreationDate,2026-02-23T21:39:27-05:00*%
%TF.ProjectId,air-quality-sensor-mcp,6169722d-7175-4616-9c69-74792d73656e,rev?*%
%TF.SameCoordinates,Original*%
%TF.FileFunction,Other,User*%
%FSLAX46Y46*%
G04 Gerber Fmt 4.6, Leading zero omitted, Abs format (unit mm)*
G04 Created by KiCad (PCBNEW 9.0.7) date 2026-02-23 21:39:27*
%MOMM*%
%LPD*%
G01*
G04 APERTURE LIST*
%ADD10C,0.050000*%
G04 APERTURE END LIST*
D10*
%TO.C,U1*%
X40000000Y-36400000D02*
X40000000Y-55200000D01*
X40000000Y-55200000D02*
X61975000Y-55200000D01*
X61975000Y-36400000D02*
X40000000Y-36400000D01*
X61975000Y-55200000D02*
X61975000Y-36400000D01*
%TO.C,R2*%
X42520000Y-29270000D02*
X45480000Y-29270000D01*
X45480000Y-30730000D01*
X42520000Y-30730000D01*
X42520000Y-29270000D01*
%TO.C,U2*%
X21000000Y-23000000D02*
X27000000Y-23000000D01*
X27000000Y-36500000D01*
X21000000Y-36500000D01*
X21000000Y-23000000D01*
%TO.C,C2*%
X50520000Y-29270000D02*
X53480000Y-29270000D01*
X53480000Y-30730000D01*
X50520000Y-30730000D01*
X50520000Y-29270000D01*
%TO.C,C3*%
X54520000Y-29270000D02*
X57480000Y-29270000D01*
X57480000Y-30730000D01*
X54520000Y-30730000D01*
X54520000Y-29270000D01*
%TO.C,R3*%
X19270000Y-65480000D02*
X20730000Y-65480000D01*
X20730000Y-62520000D01*
X19270000Y-62520000D01*
X19270000Y-65480000D01*
%TO.C,U5*%
X21000000Y-47000000D02*
X27000000Y-47000000D01*
X27000000Y-66000000D01*
X21000000Y-66000000D01*
X21000000Y-47000000D01*
%TO.C,J1*%
X73000000Y-55500000D02*
X81000000Y-55500000D01*
X81000000Y-62000000D01*
X73000000Y-62000000D01*
X73000000Y-55500000D01*
%TO.C,R4*%
X69270000Y-65480000D02*
X70730000Y-65480000D01*
X70730000Y-62520000D01*
X69270000Y-62520000D01*
X69270000Y-65480000D01*
%TO.C,U4*%
X47000000Y-58000000D02*
X53000000Y-58000000D01*
X53000000Y-71500000D01*
X47000000Y-71500000D01*
X47000000Y-58000000D01*
%TO.C,LED2*%
X72320000Y-63050000D02*
X75680000Y-63050000D01*
X75680000Y-64950000D01*
X72320000Y-64950000D01*
X72320000Y-63050000D01*
%TO.C,C4*%
X64300000Y-53020000D02*
X67700000Y-53020000D01*
X67700000Y-54980000D01*
X64300000Y-54980000D01*
X64300000Y-53020000D01*
%TO.C,C1*%
X46520000Y-29270000D02*
X49480000Y-29270000D01*
X49480000Y-30730000D01*
X46520000Y-30730000D01*
X46520000Y-29270000D01*
%TO.C,LED1*%
X64320000Y-63050000D02*
X67680000Y-63050000D01*
X67680000Y-64950000D01*
X64320000Y-64950000D01*
X64320000Y-63050000D01*
%TO.C,U3*%
X73000000Y-23000000D02*
X79000000Y-23000000D01*
X79000000Y-36500000D01*
X73000000Y-36500000D01*
X73000000Y-23000000D01*
%TO.C,R1*%
X38520000Y-29270000D02*
X41480000Y-29270000D01*
X41480000Y-30730000D01*
X38520000Y-30730000D01*
X38520000Y-29270000D01*
%TD*%
M02*
