M48
; DRILL file {KiCad 9.0.7} date 2026-02-23T21:39:28-0500
; FORMAT={-:-/ absolute / metric / decimal}
; #@! TF.CreationDate,2026-02-23T21:39:28-05:00
; #@! TF.GenerationSoftware,Kicad,Pcbnew,9.0.7
; #@! TF.FileFunction,Plated,1,2,PTH
FMAT,2
METRIC
; #@! TA.AperFunction,Plated,PTH,ViaDrill
T1C0.300
; #@! TA.AperFunction,Plated,PTH,ComponentDrill
T2C0.750
; #@! TA.AperFunction,Plated,PTH,ComponentDrill
T3C1.000
%
G90
G05
T1
X48.778Y-52.585
T2
X76.0Y-58.0
X78.0Y-58.0
T3
X24.0Y-26.0
X24.0Y-28.54
X24.0Y-31.08
X24.0Y-33.62
X24.0Y-50.0
X24.0Y-52.54
X24.0Y-55.08
X24.0Y-57.62
X24.0Y-60.16
X24.0Y-62.7
X50.0Y-61.0
X50.0Y-63.54
X50.0Y-66.08
X50.0Y-68.62
X76.0Y-26.0
X76.0Y-28.54
X76.0Y-31.08
X76.0Y-33.62
T3
X54.429Y-48.0G85X55.429Y-48.0
G05
X54.44Y-46.1G85X55.44Y-46.1
G05
M30
