%TF.GenerationSoftware,KiCad,Pcbnew,9.0.7*%
%TF.CreationDate,2026-02-23T21:39:27-05:00*%
%TF.ProjectId,air-quality-sensor-mcp,6169722d-7175-4616-9c69-74792d73656e,rev?*%
%TF.SameCoordinates,Original*%
%TF.FileFunction,Legend,Top*%
%TF.FilePolarity,Positive*%
%FSLAX46Y46*%
G04 Gerber Fmt 4.6, Leading zero omitted, Abs format (unit mm)*
G04 Created by KiCad (PCBNEW 9.0.7) date 2026-02-23 21:39:27*
%MOMM*%
%LPD*%
G01*
G04 APERTURE LIST*
%ADD10C,0.150000*%
%ADD11C,0.100000*%
%ADD12C,0.120000*%
G04 APERTURE END LIST*
D10*
X49238095Y-43954819D02*
X49238095Y-44764342D01*
X49238095Y-44764342D02*
X49285714Y-44859580D01*
X49285714Y-44859580D02*
X49333333Y-44907200D01*
X49333333Y-44907200D02*
X49428571Y-44954819D01*
X49428571Y-44954819D02*
X49619047Y-44954819D01*
X49619047Y-44954819D02*
X49714285Y-44907200D01*
X49714285Y-44907200D02*
X49761904Y-44859580D01*
X49761904Y-44859580D02*
X49809523Y-44764342D01*
X49809523Y-44764342D02*
X49809523Y-43954819D01*
X50809523Y-44954819D02*
X50238095Y-44954819D01*
X50523809Y-44954819D02*
X50523809Y-43954819D01*
X50523809Y-43954819D02*
X50428571Y-44097676D01*
X50428571Y-44097676D02*
X50333333Y-44192914D01*
X50333333Y-44192914D02*
X50238095Y-44240533D01*
X43833333Y-29024819D02*
X43500000Y-28548628D01*
X43261905Y-29024819D02*
X43261905Y-28024819D01*
X43261905Y-28024819D02*
X43642857Y-28024819D01*
X43642857Y-28024819D02*
X43738095Y-28072438D01*
X43738095Y-28072438D02*
X43785714Y-28120057D01*
X43785714Y-28120057D02*
X43833333Y-28215295D01*
X43833333Y-28215295D02*
X43833333Y-28358152D01*
X43833333Y-28358152D02*
X43785714Y-28453390D01*
X43785714Y-28453390D02*
X43738095Y-28501009D01*
X43738095Y-28501009D02*
X43642857Y-28548628D01*
X43642857Y-28548628D02*
X43261905Y-28548628D01*
X44214286Y-28120057D02*
X44261905Y-28072438D01*
X44261905Y-28072438D02*
X44357143Y-28024819D01*
X44357143Y-28024819D02*
X44595238Y-28024819D01*
X44595238Y-28024819D02*
X44690476Y-28072438D01*
X44690476Y-28072438D02*
X44738095Y-28120057D01*
X44738095Y-28120057D02*
X44785714Y-28215295D01*
X44785714Y-28215295D02*
X44785714Y-28310533D01*
X44785714Y-28310533D02*
X44738095Y-28453390D01*
X44738095Y-28453390D02*
X44166667Y-29024819D01*
X44166667Y-29024819D02*
X44785714Y-29024819D01*
X23238095Y-21954819D02*
X23238095Y-22764342D01*
X23238095Y-22764342D02*
X23285714Y-22859580D01*
X23285714Y-22859580D02*
X23333333Y-22907200D01*
X23333333Y-22907200D02*
X23428571Y-22954819D01*
X23428571Y-22954819D02*
X23619047Y-22954819D01*
X23619047Y-22954819D02*
X23714285Y-22907200D01*
X23714285Y-22907200D02*
X23761904Y-22859580D01*
X23761904Y-22859580D02*
X23809523Y-22764342D01*
X23809523Y-22764342D02*
X23809523Y-21954819D01*
X24238095Y-22050057D02*
X24285714Y-22002438D01*
X24285714Y-22002438D02*
X24380952Y-21954819D01*
X24380952Y-21954819D02*
X24619047Y-21954819D01*
X24619047Y-21954819D02*
X24714285Y-22002438D01*
X24714285Y-22002438D02*
X24761904Y-22050057D01*
X24761904Y-22050057D02*
X24809523Y-22145295D01*
X24809523Y-22145295D02*
X24809523Y-22240533D01*
X24809523Y-22240533D02*
X24761904Y-22383390D01*
X24761904Y-22383390D02*
X24190476Y-22954819D01*
X24190476Y-22954819D02*
X24809523Y-22954819D01*
D11*
X23271428Y-32243800D02*
X23357143Y-32272371D01*
X23357143Y-32272371D02*
X23500000Y-32272371D01*
X23500000Y-32272371D02*
X23557143Y-32243800D01*
X23557143Y-32243800D02*
X23585714Y-32215228D01*
X23585714Y-32215228D02*
X23614285Y-32158085D01*
X23614285Y-32158085D02*
X23614285Y-32100942D01*
X23614285Y-32100942D02*
X23585714Y-32043800D01*
X23585714Y-32043800D02*
X23557143Y-32015228D01*
X23557143Y-32015228D02*
X23500000Y-31986657D01*
X23500000Y-31986657D02*
X23385714Y-31958085D01*
X23385714Y-31958085D02*
X23328571Y-31929514D01*
X23328571Y-31929514D02*
X23300000Y-31900942D01*
X23300000Y-31900942D02*
X23271428Y-31843800D01*
X23271428Y-31843800D02*
X23271428Y-31786657D01*
X23271428Y-31786657D02*
X23300000Y-31729514D01*
X23300000Y-31729514D02*
X23328571Y-31700942D01*
X23328571Y-31700942D02*
X23385714Y-31672371D01*
X23385714Y-31672371D02*
X23528571Y-31672371D01*
X23528571Y-31672371D02*
X23614285Y-31700942D01*
X23871429Y-32272371D02*
X23871429Y-31672371D01*
X23871429Y-31672371D02*
X24014286Y-31672371D01*
X24014286Y-31672371D02*
X24100000Y-31700942D01*
X24100000Y-31700942D02*
X24157143Y-31758085D01*
X24157143Y-31758085D02*
X24185714Y-31815228D01*
X24185714Y-31815228D02*
X24214286Y-31929514D01*
X24214286Y-31929514D02*
X24214286Y-32015228D01*
X24214286Y-32015228D02*
X24185714Y-32129514D01*
X24185714Y-32129514D02*
X24157143Y-32186657D01*
X24157143Y-32186657D02*
X24100000Y-32243800D01*
X24100000Y-32243800D02*
X24014286Y-32272371D01*
X24014286Y-32272371D02*
X23871429Y-32272371D01*
X24442857Y-32100942D02*
X24728572Y-32100942D01*
X24385714Y-32272371D02*
X24585714Y-31672371D01*
X24585714Y-31672371D02*
X24785714Y-32272371D01*
X23542857Y-26700942D02*
X23485715Y-26672371D01*
X23485715Y-26672371D02*
X23400000Y-26672371D01*
X23400000Y-26672371D02*
X23314286Y-26700942D01*
X23314286Y-26700942D02*
X23257143Y-26758085D01*
X23257143Y-26758085D02*
X23228572Y-26815228D01*
X23228572Y-26815228D02*
X23200000Y-26929514D01*
X23200000Y-26929514D02*
X23200000Y-27015228D01*
X23200000Y-27015228D02*
X23228572Y-27129514D01*
X23228572Y-27129514D02*
X23257143Y-27186657D01*
X23257143Y-27186657D02*
X23314286Y-27243800D01*
X23314286Y-27243800D02*
X23400000Y-27272371D01*
X23400000Y-27272371D02*
X23457143Y-27272371D01*
X23457143Y-27272371D02*
X23542857Y-27243800D01*
X23542857Y-27243800D02*
X23571429Y-27215228D01*
X23571429Y-27215228D02*
X23571429Y-27015228D01*
X23571429Y-27015228D02*
X23457143Y-27015228D01*
X23828572Y-27272371D02*
X23828572Y-26672371D01*
X23828572Y-26672371D02*
X24171429Y-27272371D01*
X24171429Y-27272371D02*
X24171429Y-26672371D01*
X24457143Y-27272371D02*
X24457143Y-26672371D01*
X24457143Y-26672371D02*
X24600000Y-26672371D01*
X24600000Y-26672371D02*
X24685714Y-26700942D01*
X24685714Y-26700942D02*
X24742857Y-26758085D01*
X24742857Y-26758085D02*
X24771428Y-26815228D01*
X24771428Y-26815228D02*
X24800000Y-26929514D01*
X24800000Y-26929514D02*
X24800000Y-27015228D01*
X24800000Y-27015228D02*
X24771428Y-27129514D01*
X24771428Y-27129514D02*
X24742857Y-27186657D01*
X24742857Y-27186657D02*
X24685714Y-27243800D01*
X24685714Y-27243800D02*
X24600000Y-27272371D01*
X24600000Y-27272371D02*
X24457143Y-27272371D01*
X23342857Y-24172371D02*
X23542857Y-24772371D01*
X23542857Y-24772371D02*
X23742857Y-24172371D01*
X23942858Y-24772371D02*
X23942858Y-24172371D01*
X24228572Y-24772371D02*
X24228572Y-24172371D01*
X24228572Y-24172371D02*
X24571429Y-24772371D01*
X24571429Y-24772371D02*
X24571429Y-24172371D01*
X23285714Y-29743800D02*
X23371429Y-29772371D01*
X23371429Y-29772371D02*
X23514286Y-29772371D01*
X23514286Y-29772371D02*
X23571429Y-29743800D01*
X23571429Y-29743800D02*
X23600000Y-29715228D01*
X23600000Y-29715228D02*
X23628571Y-29658085D01*
X23628571Y-29658085D02*
X23628571Y-29600942D01*
X23628571Y-29600942D02*
X23600000Y-29543800D01*
X23600000Y-29543800D02*
X23571429Y-29515228D01*
X23571429Y-29515228D02*
X23514286Y-29486657D01*
X23514286Y-29486657D02*
X23400000Y-29458085D01*
X23400000Y-29458085D02*
X23342857Y-29429514D01*
X23342857Y-29429514D02*
X23314286Y-29400942D01*
X23314286Y-29400942D02*
X23285714Y-29343800D01*
X23285714Y-29343800D02*
X23285714Y-29286657D01*
X23285714Y-29286657D02*
X23314286Y-29229514D01*
X23314286Y-29229514D02*
X23342857Y-29200942D01*
X23342857Y-29200942D02*
X23400000Y-29172371D01*
X23400000Y-29172371D02*
X23542857Y-29172371D01*
X23542857Y-29172371D02*
X23628571Y-29200942D01*
X24228572Y-29715228D02*
X24200000Y-29743800D01*
X24200000Y-29743800D02*
X24114286Y-29772371D01*
X24114286Y-29772371D02*
X24057143Y-29772371D01*
X24057143Y-29772371D02*
X23971429Y-29743800D01*
X23971429Y-29743800D02*
X23914286Y-29686657D01*
X23914286Y-29686657D02*
X23885715Y-29629514D01*
X23885715Y-29629514D02*
X23857143Y-29515228D01*
X23857143Y-29515228D02*
X23857143Y-29429514D01*
X23857143Y-29429514D02*
X23885715Y-29315228D01*
X23885715Y-29315228D02*
X23914286Y-29258085D01*
X23914286Y-29258085D02*
X23971429Y-29200942D01*
X23971429Y-29200942D02*
X24057143Y-29172371D01*
X24057143Y-29172371D02*
X24114286Y-29172371D01*
X24114286Y-29172371D02*
X24200000Y-29200942D01*
X24200000Y-29200942D02*
X24228572Y-29229514D01*
X24771429Y-29772371D02*
X24485715Y-29772371D01*
X24485715Y-29772371D02*
X24485715Y-29172371D01*
D10*
X51833333Y-28929580D02*
X51785714Y-28977200D01*
X51785714Y-28977200D02*
X51642857Y-29024819D01*
X51642857Y-29024819D02*
X51547619Y-29024819D01*
X51547619Y-29024819D02*
X51404762Y-28977200D01*
X51404762Y-28977200D02*
X51309524Y-28881961D01*
X51309524Y-28881961D02*
X51261905Y-28786723D01*
X51261905Y-28786723D02*
X51214286Y-28596247D01*
X51214286Y-28596247D02*
X51214286Y-28453390D01*
X51214286Y-28453390D02*
X51261905Y-28262914D01*
X51261905Y-28262914D02*
X51309524Y-28167676D01*
X51309524Y-28167676D02*
X51404762Y-28072438D01*
X51404762Y-28072438D02*
X51547619Y-28024819D01*
X51547619Y-28024819D02*
X51642857Y-28024819D01*
X51642857Y-28024819D02*
X51785714Y-28072438D01*
X51785714Y-28072438D02*
X51833333Y-28120057D01*
X52214286Y-28120057D02*
X52261905Y-28072438D01*
X52261905Y-28072438D02*
X52357143Y-28024819D01*
X52357143Y-28024819D02*
X52595238Y-28024819D01*
X52595238Y-28024819D02*
X52690476Y-28072438D01*
X52690476Y-28072438D02*
X52738095Y-28120057D01*
X52738095Y-28120057D02*
X52785714Y-28215295D01*
X52785714Y-28215295D02*
X52785714Y-28310533D01*
X52785714Y-28310533D02*
X52738095Y-28453390D01*
X52738095Y-28453390D02*
X52166667Y-29024819D01*
X52166667Y-29024819D02*
X52785714Y-29024819D01*
X55833333Y-28929580D02*
X55785714Y-28977200D01*
X55785714Y-28977200D02*
X55642857Y-29024819D01*
X55642857Y-29024819D02*
X55547619Y-29024819D01*
X55547619Y-29024819D02*
X55404762Y-28977200D01*
X55404762Y-28977200D02*
X55309524Y-28881961D01*
X55309524Y-28881961D02*
X55261905Y-28786723D01*
X55261905Y-28786723D02*
X55214286Y-28596247D01*
X55214286Y-28596247D02*
X55214286Y-28453390D01*
X55214286Y-28453390D02*
X55261905Y-28262914D01*
X55261905Y-28262914D02*
X55309524Y-28167676D01*
X55309524Y-28167676D02*
X55404762Y-28072438D01*
X55404762Y-28072438D02*
X55547619Y-28024819D01*
X55547619Y-28024819D02*
X55642857Y-28024819D01*
X55642857Y-28024819D02*
X55785714Y-28072438D01*
X55785714Y-28072438D02*
X55833333Y-28120057D01*
X56166667Y-28024819D02*
X56785714Y-28024819D01*
X56785714Y-28024819D02*
X56452381Y-28405771D01*
X56452381Y-28405771D02*
X56595238Y-28405771D01*
X56595238Y-28405771D02*
X56690476Y-28453390D01*
X56690476Y-28453390D02*
X56738095Y-28501009D01*
X56738095Y-28501009D02*
X56785714Y-28596247D01*
X56785714Y-28596247D02*
X56785714Y-28834342D01*
X56785714Y-28834342D02*
X56738095Y-28929580D01*
X56738095Y-28929580D02*
X56690476Y-28977200D01*
X56690476Y-28977200D02*
X56595238Y-29024819D01*
X56595238Y-29024819D02*
X56309524Y-29024819D01*
X56309524Y-29024819D02*
X56214286Y-28977200D01*
X56214286Y-28977200D02*
X56166667Y-28929580D01*
X18403333Y-64454819D02*
X18070000Y-63978628D01*
X17831905Y-64454819D02*
X17831905Y-63454819D01*
X17831905Y-63454819D02*
X18212857Y-63454819D01*
X18212857Y-63454819D02*
X18308095Y-63502438D01*
X18308095Y-63502438D02*
X18355714Y-63550057D01*
X18355714Y-63550057D02*
X18403333Y-63645295D01*
X18403333Y-63645295D02*
X18403333Y-63788152D01*
X18403333Y-63788152D02*
X18355714Y-63883390D01*
X18355714Y-63883390D02*
X18308095Y-63931009D01*
X18308095Y-63931009D02*
X18212857Y-63978628D01*
X18212857Y-63978628D02*
X17831905Y-63978628D01*
X18736667Y-63454819D02*
X19355714Y-63454819D01*
X19355714Y-63454819D02*
X19022381Y-63835771D01*
X19022381Y-63835771D02*
X19165238Y-63835771D01*
X19165238Y-63835771D02*
X19260476Y-63883390D01*
X19260476Y-63883390D02*
X19308095Y-63931009D01*
X19308095Y-63931009D02*
X19355714Y-64026247D01*
X19355714Y-64026247D02*
X19355714Y-64264342D01*
X19355714Y-64264342D02*
X19308095Y-64359580D01*
X19308095Y-64359580D02*
X19260476Y-64407200D01*
X19260476Y-64407200D02*
X19165238Y-64454819D01*
X19165238Y-64454819D02*
X18879524Y-64454819D01*
X18879524Y-64454819D02*
X18784286Y-64407200D01*
X18784286Y-64407200D02*
X18736667Y-64359580D01*
X23238095Y-45454819D02*
X23238095Y-46264342D01*
X23238095Y-46264342D02*
X23285714Y-46359580D01*
X23285714Y-46359580D02*
X23333333Y-46407200D01*
X23333333Y-46407200D02*
X23428571Y-46454819D01*
X23428571Y-46454819D02*
X23619047Y-46454819D01*
X23619047Y-46454819D02*
X23714285Y-46407200D01*
X23714285Y-46407200D02*
X23761904Y-46359580D01*
X23761904Y-46359580D02*
X23809523Y-46264342D01*
X23809523Y-46264342D02*
X23809523Y-45454819D01*
X24761904Y-45454819D02*
X24285714Y-45454819D01*
X24285714Y-45454819D02*
X24238095Y-45931009D01*
X24238095Y-45931009D02*
X24285714Y-45883390D01*
X24285714Y-45883390D02*
X24380952Y-45835771D01*
X24380952Y-45835771D02*
X24619047Y-45835771D01*
X24619047Y-45835771D02*
X24714285Y-45883390D01*
X24714285Y-45883390D02*
X24761904Y-45931009D01*
X24761904Y-45931009D02*
X24809523Y-46026247D01*
X24809523Y-46026247D02*
X24809523Y-46264342D01*
X24809523Y-46264342D02*
X24761904Y-46359580D01*
X24761904Y-46359580D02*
X24714285Y-46407200D01*
X24714285Y-46407200D02*
X24619047Y-46454819D01*
X24619047Y-46454819D02*
X24380952Y-46454819D01*
X24380952Y-46454819D02*
X24285714Y-46407200D01*
X24285714Y-46407200D02*
X24238095Y-46359580D01*
D11*
X20171429Y-57578085D02*
X20257143Y-57606657D01*
X20257143Y-57606657D02*
X20285714Y-57635228D01*
X20285714Y-57635228D02*
X20314286Y-57692371D01*
X20314286Y-57692371D02*
X20314286Y-57778085D01*
X20314286Y-57778085D02*
X20285714Y-57835228D01*
X20285714Y-57835228D02*
X20257143Y-57863800D01*
X20257143Y-57863800D02*
X20200000Y-57892371D01*
X20200000Y-57892371D02*
X19971429Y-57892371D01*
X19971429Y-57892371D02*
X19971429Y-57292371D01*
X19971429Y-57292371D02*
X20171429Y-57292371D01*
X20171429Y-57292371D02*
X20228572Y-57320942D01*
X20228572Y-57320942D02*
X20257143Y-57349514D01*
X20257143Y-57349514D02*
X20285714Y-57406657D01*
X20285714Y-57406657D02*
X20285714Y-57463800D01*
X20285714Y-57463800D02*
X20257143Y-57520942D01*
X20257143Y-57520942D02*
X20228572Y-57549514D01*
X20228572Y-57549514D02*
X20171429Y-57578085D01*
X20171429Y-57578085D02*
X19971429Y-57578085D01*
X20571429Y-57663800D02*
X21028572Y-57663800D01*
X19528571Y-62372371D02*
X19642857Y-62372371D01*
X19642857Y-62372371D02*
X19700000Y-62400942D01*
X19700000Y-62400942D02*
X19757143Y-62458085D01*
X19757143Y-62458085D02*
X19785714Y-62572371D01*
X19785714Y-62572371D02*
X19785714Y-62772371D01*
X19785714Y-62772371D02*
X19757143Y-62886657D01*
X19757143Y-62886657D02*
X19700000Y-62943800D01*
X19700000Y-62943800D02*
X19642857Y-62972371D01*
X19642857Y-62972371D02*
X19528571Y-62972371D01*
X19528571Y-62972371D02*
X19471429Y-62943800D01*
X19471429Y-62943800D02*
X19414286Y-62886657D01*
X19414286Y-62886657D02*
X19385714Y-62772371D01*
X19385714Y-62772371D02*
X19385714Y-62572371D01*
X19385714Y-62572371D02*
X19414286Y-62458085D01*
X19414286Y-62458085D02*
X19471429Y-62400942D01*
X19471429Y-62400942D02*
X19528571Y-62372371D01*
X20042857Y-62372371D02*
X20042857Y-62858085D01*
X20042857Y-62858085D02*
X20071428Y-62915228D01*
X20071428Y-62915228D02*
X20100000Y-62943800D01*
X20100000Y-62943800D02*
X20157142Y-62972371D01*
X20157142Y-62972371D02*
X20271428Y-62972371D01*
X20271428Y-62972371D02*
X20328571Y-62943800D01*
X20328571Y-62943800D02*
X20357142Y-62915228D01*
X20357142Y-62915228D02*
X20385714Y-62858085D01*
X20385714Y-62858085D02*
X20385714Y-62372371D01*
X20585713Y-62372371D02*
X20928571Y-62372371D01*
X20757142Y-62972371D02*
X20757142Y-62372371D01*
X21128571Y-62743800D02*
X21585714Y-62743800D01*
X19814286Y-50272371D02*
X19814286Y-49672371D01*
X20100000Y-50272371D02*
X20100000Y-49672371D01*
X20100000Y-49672371D02*
X20442857Y-50272371D01*
X20442857Y-50272371D02*
X20442857Y-49672371D01*
X20728571Y-50043800D02*
X21185714Y-50043800D01*
X20957142Y-50272371D02*
X20957142Y-49815228D01*
X19528571Y-59832371D02*
X19642857Y-59832371D01*
X19642857Y-59832371D02*
X19700000Y-59860942D01*
X19700000Y-59860942D02*
X19757143Y-59918085D01*
X19757143Y-59918085D02*
X19785714Y-60032371D01*
X19785714Y-60032371D02*
X19785714Y-60232371D01*
X19785714Y-60232371D02*
X19757143Y-60346657D01*
X19757143Y-60346657D02*
X19700000Y-60403800D01*
X19700000Y-60403800D02*
X19642857Y-60432371D01*
X19642857Y-60432371D02*
X19528571Y-60432371D01*
X19528571Y-60432371D02*
X19471429Y-60403800D01*
X19471429Y-60403800D02*
X19414286Y-60346657D01*
X19414286Y-60346657D02*
X19385714Y-60232371D01*
X19385714Y-60232371D02*
X19385714Y-60032371D01*
X19385714Y-60032371D02*
X19414286Y-59918085D01*
X19414286Y-59918085D02*
X19471429Y-59860942D01*
X19471429Y-59860942D02*
X19528571Y-59832371D01*
X20042857Y-59832371D02*
X20042857Y-60318085D01*
X20042857Y-60318085D02*
X20071428Y-60375228D01*
X20071428Y-60375228D02*
X20100000Y-60403800D01*
X20100000Y-60403800D02*
X20157142Y-60432371D01*
X20157142Y-60432371D02*
X20271428Y-60432371D01*
X20271428Y-60432371D02*
X20328571Y-60403800D01*
X20328571Y-60403800D02*
X20357142Y-60375228D01*
X20357142Y-60375228D02*
X20385714Y-60318085D01*
X20385714Y-60318085D02*
X20385714Y-59832371D01*
X20585713Y-59832371D02*
X20928571Y-59832371D01*
X20757142Y-60432371D02*
X20757142Y-59832371D01*
X21128571Y-60203800D02*
X21585714Y-60203800D01*
X21357142Y-60432371D02*
X21357142Y-59975228D01*
X19814286Y-52812371D02*
X19814286Y-52212371D01*
X20100000Y-52812371D02*
X20100000Y-52212371D01*
X20100000Y-52212371D02*
X20442857Y-52812371D01*
X20442857Y-52812371D02*
X20442857Y-52212371D01*
X20728571Y-52583800D02*
X21185714Y-52583800D01*
X20171429Y-55038085D02*
X20257143Y-55066657D01*
X20257143Y-55066657D02*
X20285714Y-55095228D01*
X20285714Y-55095228D02*
X20314286Y-55152371D01*
X20314286Y-55152371D02*
X20314286Y-55238085D01*
X20314286Y-55238085D02*
X20285714Y-55295228D01*
X20285714Y-55295228D02*
X20257143Y-55323800D01*
X20257143Y-55323800D02*
X20200000Y-55352371D01*
X20200000Y-55352371D02*
X19971429Y-55352371D01*
X19971429Y-55352371D02*
X19971429Y-54752371D01*
X19971429Y-54752371D02*
X20171429Y-54752371D01*
X20171429Y-54752371D02*
X20228572Y-54780942D01*
X20228572Y-54780942D02*
X20257143Y-54809514D01*
X20257143Y-54809514D02*
X20285714Y-54866657D01*
X20285714Y-54866657D02*
X20285714Y-54923800D01*
X20285714Y-54923800D02*
X20257143Y-54980942D01*
X20257143Y-54980942D02*
X20228572Y-55009514D01*
X20228572Y-55009514D02*
X20171429Y-55038085D01*
X20171429Y-55038085D02*
X19971429Y-55038085D01*
X20571429Y-55123800D02*
X21028572Y-55123800D01*
X20800000Y-55352371D02*
X20800000Y-54895228D01*
D10*
X76666666Y-54454819D02*
X76666666Y-55169104D01*
X76666666Y-55169104D02*
X76619047Y-55311961D01*
X76619047Y-55311961D02*
X76523809Y-55407200D01*
X76523809Y-55407200D02*
X76380952Y-55454819D01*
X76380952Y-55454819D02*
X76285714Y-55454819D01*
X77666666Y-55454819D02*
X77095238Y-55454819D01*
X77380952Y-55454819D02*
X77380952Y-54454819D01*
X77380952Y-54454819D02*
X77285714Y-54597676D01*
X77285714Y-54597676D02*
X77190476Y-54692914D01*
X77190476Y-54692914D02*
X77095238Y-54740533D01*
D12*
X79195238Y-56559093D02*
X79804762Y-56559093D01*
X74195238Y-56559093D02*
X74804762Y-56559093D01*
X74500000Y-56863855D02*
X74500000Y-56254331D01*
D10*
X68403333Y-64454819D02*
X68070000Y-63978628D01*
X67831905Y-64454819D02*
X67831905Y-63454819D01*
X67831905Y-63454819D02*
X68212857Y-63454819D01*
X68212857Y-63454819D02*
X68308095Y-63502438D01*
X68308095Y-63502438D02*
X68355714Y-63550057D01*
X68355714Y-63550057D02*
X68403333Y-63645295D01*
X68403333Y-63645295D02*
X68403333Y-63788152D01*
X68403333Y-63788152D02*
X68355714Y-63883390D01*
X68355714Y-63883390D02*
X68308095Y-63931009D01*
X68308095Y-63931009D02*
X68212857Y-63978628D01*
X68212857Y-63978628D02*
X67831905Y-63978628D01*
X69260476Y-63788152D02*
X69260476Y-64454819D01*
X69022381Y-63407200D02*
X68784286Y-64121485D01*
X68784286Y-64121485D02*
X69403333Y-64121485D01*
X49238095Y-56954819D02*
X49238095Y-57764342D01*
X49238095Y-57764342D02*
X49285714Y-57859580D01*
X49285714Y-57859580D02*
X49333333Y-57907200D01*
X49333333Y-57907200D02*
X49428571Y-57954819D01*
X49428571Y-57954819D02*
X49619047Y-57954819D01*
X49619047Y-57954819D02*
X49714285Y-57907200D01*
X49714285Y-57907200D02*
X49761904Y-57859580D01*
X49761904Y-57859580D02*
X49809523Y-57764342D01*
X49809523Y-57764342D02*
X49809523Y-56954819D01*
X50714285Y-57288152D02*
X50714285Y-57954819D01*
X50476190Y-56907200D02*
X50238095Y-57621485D01*
X50238095Y-57621485D02*
X50857142Y-57621485D01*
D11*
X49285714Y-64743800D02*
X49371429Y-64772371D01*
X49371429Y-64772371D02*
X49514286Y-64772371D01*
X49514286Y-64772371D02*
X49571429Y-64743800D01*
X49571429Y-64743800D02*
X49600000Y-64715228D01*
X49600000Y-64715228D02*
X49628571Y-64658085D01*
X49628571Y-64658085D02*
X49628571Y-64600942D01*
X49628571Y-64600942D02*
X49600000Y-64543800D01*
X49600000Y-64543800D02*
X49571429Y-64515228D01*
X49571429Y-64515228D02*
X49514286Y-64486657D01*
X49514286Y-64486657D02*
X49400000Y-64458085D01*
X49400000Y-64458085D02*
X49342857Y-64429514D01*
X49342857Y-64429514D02*
X49314286Y-64400942D01*
X49314286Y-64400942D02*
X49285714Y-64343800D01*
X49285714Y-64343800D02*
X49285714Y-64286657D01*
X49285714Y-64286657D02*
X49314286Y-64229514D01*
X49314286Y-64229514D02*
X49342857Y-64200942D01*
X49342857Y-64200942D02*
X49400000Y-64172371D01*
X49400000Y-64172371D02*
X49542857Y-64172371D01*
X49542857Y-64172371D02*
X49628571Y-64200942D01*
X50228572Y-64715228D02*
X50200000Y-64743800D01*
X50200000Y-64743800D02*
X50114286Y-64772371D01*
X50114286Y-64772371D02*
X50057143Y-64772371D01*
X50057143Y-64772371D02*
X49971429Y-64743800D01*
X49971429Y-64743800D02*
X49914286Y-64686657D01*
X49914286Y-64686657D02*
X49885715Y-64629514D01*
X49885715Y-64629514D02*
X49857143Y-64515228D01*
X49857143Y-64515228D02*
X49857143Y-64429514D01*
X49857143Y-64429514D02*
X49885715Y-64315228D01*
X49885715Y-64315228D02*
X49914286Y-64258085D01*
X49914286Y-64258085D02*
X49971429Y-64200942D01*
X49971429Y-64200942D02*
X50057143Y-64172371D01*
X50057143Y-64172371D02*
X50114286Y-64172371D01*
X50114286Y-64172371D02*
X50200000Y-64200942D01*
X50200000Y-64200942D02*
X50228572Y-64229514D01*
X50771429Y-64772371D02*
X50485715Y-64772371D01*
X50485715Y-64772371D02*
X50485715Y-64172371D01*
X49542857Y-59200942D02*
X49485715Y-59172371D01*
X49485715Y-59172371D02*
X49400000Y-59172371D01*
X49400000Y-59172371D02*
X49314286Y-59200942D01*
X49314286Y-59200942D02*
X49257143Y-59258085D01*
X49257143Y-59258085D02*
X49228572Y-59315228D01*
X49228572Y-59315228D02*
X49200000Y-59429514D01*
X49200000Y-59429514D02*
X49200000Y-59515228D01*
X49200000Y-59515228D02*
X49228572Y-59629514D01*
X49228572Y-59629514D02*
X49257143Y-59686657D01*
X49257143Y-59686657D02*
X49314286Y-59743800D01*
X49314286Y-59743800D02*
X49400000Y-59772371D01*
X49400000Y-59772371D02*
X49457143Y-59772371D01*
X49457143Y-59772371D02*
X49542857Y-59743800D01*
X49542857Y-59743800D02*
X49571429Y-59715228D01*
X49571429Y-59715228D02*
X49571429Y-59515228D01*
X49571429Y-59515228D02*
X49457143Y-59515228D01*
X49828572Y-59772371D02*
X49828572Y-59172371D01*
X49828572Y-59172371D02*
X50171429Y-59772371D01*
X50171429Y-59772371D02*
X50171429Y-59172371D01*
X50457143Y-59772371D02*
X50457143Y-59172371D01*
X50457143Y-59172371D02*
X50600000Y-59172371D01*
X50600000Y-59172371D02*
X50685714Y-59200942D01*
X50685714Y-59200942D02*
X50742857Y-59258085D01*
X50742857Y-59258085D02*
X50771428Y-59315228D01*
X50771428Y-59315228D02*
X50800000Y-59429514D01*
X50800000Y-59429514D02*
X50800000Y-59515228D01*
X50800000Y-59515228D02*
X50771428Y-59629514D01*
X50771428Y-59629514D02*
X50742857Y-59686657D01*
X50742857Y-59686657D02*
X50685714Y-59743800D01*
X50685714Y-59743800D02*
X50600000Y-59772371D01*
X50600000Y-59772371D02*
X50457143Y-59772371D01*
X49199999Y-61672371D02*
X49399999Y-62272371D01*
X49399999Y-62272371D02*
X49599999Y-61672371D01*
X50142857Y-62215228D02*
X50114285Y-62243800D01*
X50114285Y-62243800D02*
X50028571Y-62272371D01*
X50028571Y-62272371D02*
X49971428Y-62272371D01*
X49971428Y-62272371D02*
X49885714Y-62243800D01*
X49885714Y-62243800D02*
X49828571Y-62186657D01*
X49828571Y-62186657D02*
X49800000Y-62129514D01*
X49800000Y-62129514D02*
X49771428Y-62015228D01*
X49771428Y-62015228D02*
X49771428Y-61929514D01*
X49771428Y-61929514D02*
X49800000Y-61815228D01*
X49800000Y-61815228D02*
X49828571Y-61758085D01*
X49828571Y-61758085D02*
X49885714Y-61700942D01*
X49885714Y-61700942D02*
X49971428Y-61672371D01*
X49971428Y-61672371D02*
X50028571Y-61672371D01*
X50028571Y-61672371D02*
X50114285Y-61700942D01*
X50114285Y-61700942D02*
X50142857Y-61729514D01*
X50742857Y-62215228D02*
X50714285Y-62243800D01*
X50714285Y-62243800D02*
X50628571Y-62272371D01*
X50628571Y-62272371D02*
X50571428Y-62272371D01*
X50571428Y-62272371D02*
X50485714Y-62243800D01*
X50485714Y-62243800D02*
X50428571Y-62186657D01*
X50428571Y-62186657D02*
X50400000Y-62129514D01*
X50400000Y-62129514D02*
X50371428Y-62015228D01*
X50371428Y-62015228D02*
X50371428Y-61929514D01*
X50371428Y-61929514D02*
X50400000Y-61815228D01*
X50400000Y-61815228D02*
X50428571Y-61758085D01*
X50428571Y-61758085D02*
X50485714Y-61700942D01*
X50485714Y-61700942D02*
X50571428Y-61672371D01*
X50571428Y-61672371D02*
X50628571Y-61672371D01*
X50628571Y-61672371D02*
X50714285Y-61700942D01*
X50714285Y-61700942D02*
X50742857Y-61729514D01*
X49271428Y-67243800D02*
X49357143Y-67272371D01*
X49357143Y-67272371D02*
X49500000Y-67272371D01*
X49500000Y-67272371D02*
X49557143Y-67243800D01*
X49557143Y-67243800D02*
X49585714Y-67215228D01*
X49585714Y-67215228D02*
X49614285Y-67158085D01*
X49614285Y-67158085D02*
X49614285Y-67100942D01*
X49614285Y-67100942D02*
X49585714Y-67043800D01*
X49585714Y-67043800D02*
X49557143Y-67015228D01*
X49557143Y-67015228D02*
X49500000Y-66986657D01*
X49500000Y-66986657D02*
X49385714Y-66958085D01*
X49385714Y-66958085D02*
X49328571Y-66929514D01*
X49328571Y-66929514D02*
X49300000Y-66900942D01*
X49300000Y-66900942D02*
X49271428Y-66843800D01*
X49271428Y-66843800D02*
X49271428Y-66786657D01*
X49271428Y-66786657D02*
X49300000Y-66729514D01*
X49300000Y-66729514D02*
X49328571Y-66700942D01*
X49328571Y-66700942D02*
X49385714Y-66672371D01*
X49385714Y-66672371D02*
X49528571Y-66672371D01*
X49528571Y-66672371D02*
X49614285Y-66700942D01*
X49871429Y-67272371D02*
X49871429Y-66672371D01*
X49871429Y-66672371D02*
X50014286Y-66672371D01*
X50014286Y-66672371D02*
X50100000Y-66700942D01*
X50100000Y-66700942D02*
X50157143Y-66758085D01*
X50157143Y-66758085D02*
X50185714Y-66815228D01*
X50185714Y-66815228D02*
X50214286Y-66929514D01*
X50214286Y-66929514D02*
X50214286Y-67015228D01*
X50214286Y-67015228D02*
X50185714Y-67129514D01*
X50185714Y-67129514D02*
X50157143Y-67186657D01*
X50157143Y-67186657D02*
X50100000Y-67243800D01*
X50100000Y-67243800D02*
X50014286Y-67272371D01*
X50014286Y-67272371D02*
X49871429Y-67272371D01*
X50442857Y-67100942D02*
X50728572Y-67100942D01*
X50385714Y-67272371D02*
X50585714Y-66672371D01*
X50585714Y-66672371D02*
X50785714Y-67272371D01*
D10*
X72880952Y-62804819D02*
X72404762Y-62804819D01*
X72404762Y-62804819D02*
X72404762Y-61804819D01*
X73214286Y-62281009D02*
X73547619Y-62281009D01*
X73690476Y-62804819D02*
X73214286Y-62804819D01*
X73214286Y-62804819D02*
X73214286Y-61804819D01*
X73214286Y-61804819D02*
X73690476Y-61804819D01*
X74119048Y-62804819D02*
X74119048Y-61804819D01*
X74119048Y-61804819D02*
X74357143Y-61804819D01*
X74357143Y-61804819D02*
X74500000Y-61852438D01*
X74500000Y-61852438D02*
X74595238Y-61947676D01*
X74595238Y-61947676D02*
X74642857Y-62042914D01*
X74642857Y-62042914D02*
X74690476Y-62233390D01*
X74690476Y-62233390D02*
X74690476Y-62376247D01*
X74690476Y-62376247D02*
X74642857Y-62566723D01*
X74642857Y-62566723D02*
X74595238Y-62661961D01*
X74595238Y-62661961D02*
X74500000Y-62757200D01*
X74500000Y-62757200D02*
X74357143Y-62804819D01*
X74357143Y-62804819D02*
X74119048Y-62804819D01*
X75071429Y-61900057D02*
X75119048Y-61852438D01*
X75119048Y-61852438D02*
X75214286Y-61804819D01*
X75214286Y-61804819D02*
X75452381Y-61804819D01*
X75452381Y-61804819D02*
X75547619Y-61852438D01*
X75547619Y-61852438D02*
X75595238Y-61900057D01*
X75595238Y-61900057D02*
X75642857Y-61995295D01*
X75642857Y-61995295D02*
X75642857Y-62090533D01*
X75642857Y-62090533D02*
X75595238Y-62233390D01*
X75595238Y-62233390D02*
X75023810Y-62804819D01*
X75023810Y-62804819D02*
X75642857Y-62804819D01*
X65833333Y-52679580D02*
X65785714Y-52727200D01*
X65785714Y-52727200D02*
X65642857Y-52774819D01*
X65642857Y-52774819D02*
X65547619Y-52774819D01*
X65547619Y-52774819D02*
X65404762Y-52727200D01*
X65404762Y-52727200D02*
X65309524Y-52631961D01*
X65309524Y-52631961D02*
X65261905Y-52536723D01*
X65261905Y-52536723D02*
X65214286Y-52346247D01*
X65214286Y-52346247D02*
X65214286Y-52203390D01*
X65214286Y-52203390D02*
X65261905Y-52012914D01*
X65261905Y-52012914D02*
X65309524Y-51917676D01*
X65309524Y-51917676D02*
X65404762Y-51822438D01*
X65404762Y-51822438D02*
X65547619Y-51774819D01*
X65547619Y-51774819D02*
X65642857Y-51774819D01*
X65642857Y-51774819D02*
X65785714Y-51822438D01*
X65785714Y-51822438D02*
X65833333Y-51870057D01*
X66690476Y-52108152D02*
X66690476Y-52774819D01*
X66452381Y-51727200D02*
X66214286Y-52441485D01*
X66214286Y-52441485D02*
X66833333Y-52441485D01*
X47833333Y-28929580D02*
X47785714Y-28977200D01*
X47785714Y-28977200D02*
X47642857Y-29024819D01*
X47642857Y-29024819D02*
X47547619Y-29024819D01*
X47547619Y-29024819D02*
X47404762Y-28977200D01*
X47404762Y-28977200D02*
X47309524Y-28881961D01*
X47309524Y-28881961D02*
X47261905Y-28786723D01*
X47261905Y-28786723D02*
X47214286Y-28596247D01*
X47214286Y-28596247D02*
X47214286Y-28453390D01*
X47214286Y-28453390D02*
X47261905Y-28262914D01*
X47261905Y-28262914D02*
X47309524Y-28167676D01*
X47309524Y-28167676D02*
X47404762Y-28072438D01*
X47404762Y-28072438D02*
X47547619Y-28024819D01*
X47547619Y-28024819D02*
X47642857Y-28024819D01*
X47642857Y-28024819D02*
X47785714Y-28072438D01*
X47785714Y-28072438D02*
X47833333Y-28120057D01*
X48785714Y-29024819D02*
X48214286Y-29024819D01*
X48500000Y-29024819D02*
X48500000Y-28024819D01*
X48500000Y-28024819D02*
X48404762Y-28167676D01*
X48404762Y-28167676D02*
X48309524Y-28262914D01*
X48309524Y-28262914D02*
X48214286Y-28310533D01*
X64880952Y-62804819D02*
X64404762Y-62804819D01*
X64404762Y-62804819D02*
X64404762Y-61804819D01*
X65214286Y-62281009D02*
X65547619Y-62281009D01*
X65690476Y-62804819D02*
X65214286Y-62804819D01*
X65214286Y-62804819D02*
X65214286Y-61804819D01*
X65214286Y-61804819D02*
X65690476Y-61804819D01*
X66119048Y-62804819D02*
X66119048Y-61804819D01*
X66119048Y-61804819D02*
X66357143Y-61804819D01*
X66357143Y-61804819D02*
X66500000Y-61852438D01*
X66500000Y-61852438D02*
X66595238Y-61947676D01*
X66595238Y-61947676D02*
X66642857Y-62042914D01*
X66642857Y-62042914D02*
X66690476Y-62233390D01*
X66690476Y-62233390D02*
X66690476Y-62376247D01*
X66690476Y-62376247D02*
X66642857Y-62566723D01*
X66642857Y-62566723D02*
X66595238Y-62661961D01*
X66595238Y-62661961D02*
X66500000Y-62757200D01*
X66500000Y-62757200D02*
X66357143Y-62804819D01*
X66357143Y-62804819D02*
X66119048Y-62804819D01*
X67642857Y-62804819D02*
X67071429Y-62804819D01*
X67357143Y-62804819D02*
X67357143Y-61804819D01*
X67357143Y-61804819D02*
X67261905Y-61947676D01*
X67261905Y-61947676D02*
X67166667Y-62042914D01*
X67166667Y-62042914D02*
X67071429Y-62090533D01*
X75238095Y-21954819D02*
X75238095Y-22764342D01*
X75238095Y-22764342D02*
X75285714Y-22859580D01*
X75285714Y-22859580D02*
X75333333Y-22907200D01*
X75333333Y-22907200D02*
X75428571Y-22954819D01*
X75428571Y-22954819D02*
X75619047Y-22954819D01*
X75619047Y-22954819D02*
X75714285Y-22907200D01*
X75714285Y-22907200D02*
X75761904Y-22859580D01*
X75761904Y-22859580D02*
X75809523Y-22764342D01*
X75809523Y-22764342D02*
X75809523Y-21954819D01*
X76190476Y-21954819D02*
X76809523Y-21954819D01*
X76809523Y-21954819D02*
X76476190Y-22335771D01*
X76476190Y-22335771D02*
X76619047Y-22335771D01*
X76619047Y-22335771D02*
X76714285Y-22383390D01*
X76714285Y-22383390D02*
X76761904Y-22431009D01*
X76761904Y-22431009D02*
X76809523Y-22526247D01*
X76809523Y-22526247D02*
X76809523Y-22764342D01*
X76809523Y-22764342D02*
X76761904Y-22859580D01*
X76761904Y-22859580D02*
X76714285Y-22907200D01*
X76714285Y-22907200D02*
X76619047Y-22954819D01*
X76619047Y-22954819D02*
X76333333Y-22954819D01*
X76333333Y-22954819D02*
X76238095Y-22907200D01*
X76238095Y-22907200D02*
X76190476Y-22859580D01*
D11*
X75271428Y-32243800D02*
X75357143Y-32272371D01*
X75357143Y-32272371D02*
X75500000Y-32272371D01*
X75500000Y-32272371D02*
X75557143Y-32243800D01*
X75557143Y-32243800D02*
X75585714Y-32215228D01*
X75585714Y-32215228D02*
X75614285Y-32158085D01*
X75614285Y-32158085D02*
X75614285Y-32100942D01*
X75614285Y-32100942D02*
X75585714Y-32043800D01*
X75585714Y-32043800D02*
X75557143Y-32015228D01*
X75557143Y-32015228D02*
X75500000Y-31986657D01*
X75500000Y-31986657D02*
X75385714Y-31958085D01*
X75385714Y-31958085D02*
X75328571Y-31929514D01*
X75328571Y-31929514D02*
X75300000Y-31900942D01*
X75300000Y-31900942D02*
X75271428Y-31843800D01*
X75271428Y-31843800D02*
X75271428Y-31786657D01*
X75271428Y-31786657D02*
X75300000Y-31729514D01*
X75300000Y-31729514D02*
X75328571Y-31700942D01*
X75328571Y-31700942D02*
X75385714Y-31672371D01*
X75385714Y-31672371D02*
X75528571Y-31672371D01*
X75528571Y-31672371D02*
X75614285Y-31700942D01*
X75871429Y-32272371D02*
X75871429Y-31672371D01*
X75871429Y-31672371D02*
X76014286Y-31672371D01*
X76014286Y-31672371D02*
X76100000Y-31700942D01*
X76100000Y-31700942D02*
X76157143Y-31758085D01*
X76157143Y-31758085D02*
X76185714Y-31815228D01*
X76185714Y-31815228D02*
X76214286Y-31929514D01*
X76214286Y-31929514D02*
X76214286Y-32015228D01*
X76214286Y-32015228D02*
X76185714Y-32129514D01*
X76185714Y-32129514D02*
X76157143Y-32186657D01*
X76157143Y-32186657D02*
X76100000Y-32243800D01*
X76100000Y-32243800D02*
X76014286Y-32272371D01*
X76014286Y-32272371D02*
X75871429Y-32272371D01*
X76442857Y-32100942D02*
X76728572Y-32100942D01*
X76385714Y-32272371D02*
X76585714Y-31672371D01*
X76585714Y-31672371D02*
X76785714Y-32272371D01*
X75285714Y-29743800D02*
X75371429Y-29772371D01*
X75371429Y-29772371D02*
X75514286Y-29772371D01*
X75514286Y-29772371D02*
X75571429Y-29743800D01*
X75571429Y-29743800D02*
X75600000Y-29715228D01*
X75600000Y-29715228D02*
X75628571Y-29658085D01*
X75628571Y-29658085D02*
X75628571Y-29600942D01*
X75628571Y-29600942D02*
X75600000Y-29543800D01*
X75600000Y-29543800D02*
X75571429Y-29515228D01*
X75571429Y-29515228D02*
X75514286Y-29486657D01*
X75514286Y-29486657D02*
X75400000Y-29458085D01*
X75400000Y-29458085D02*
X75342857Y-29429514D01*
X75342857Y-29429514D02*
X75314286Y-29400942D01*
X75314286Y-29400942D02*
X75285714Y-29343800D01*
X75285714Y-29343800D02*
X75285714Y-29286657D01*
X75285714Y-29286657D02*
X75314286Y-29229514D01*
X75314286Y-29229514D02*
X75342857Y-29200942D01*
X75342857Y-29200942D02*
X75400000Y-29172371D01*
X75400000Y-29172371D02*
X75542857Y-29172371D01*
X75542857Y-29172371D02*
X75628571Y-29200942D01*
X76228572Y-29715228D02*
X76200000Y-29743800D01*
X76200000Y-29743800D02*
X76114286Y-29772371D01*
X76114286Y-29772371D02*
X76057143Y-29772371D01*
X76057143Y-29772371D02*
X75971429Y-29743800D01*
X75971429Y-29743800D02*
X75914286Y-29686657D01*
X75914286Y-29686657D02*
X75885715Y-29629514D01*
X75885715Y-29629514D02*
X75857143Y-29515228D01*
X75857143Y-29515228D02*
X75857143Y-29429514D01*
X75857143Y-29429514D02*
X75885715Y-29315228D01*
X75885715Y-29315228D02*
X75914286Y-29258085D01*
X75914286Y-29258085D02*
X75971429Y-29200942D01*
X75971429Y-29200942D02*
X76057143Y-29172371D01*
X76057143Y-29172371D02*
X76114286Y-29172371D01*
X76114286Y-29172371D02*
X76200000Y-29200942D01*
X76200000Y-29200942D02*
X76228572Y-29229514D01*
X76771429Y-29772371D02*
X76485715Y-29772371D01*
X76485715Y-29772371D02*
X76485715Y-29172371D01*
X75342857Y-24172371D02*
X75542857Y-24772371D01*
X75542857Y-24772371D02*
X75742857Y-24172371D01*
X75942858Y-24772371D02*
X75942858Y-24172371D01*
X76228572Y-24772371D02*
X76228572Y-24172371D01*
X76228572Y-24172371D02*
X76571429Y-24772371D01*
X76571429Y-24772371D02*
X76571429Y-24172371D01*
X75542857Y-26700942D02*
X75485715Y-26672371D01*
X75485715Y-26672371D02*
X75400000Y-26672371D01*
X75400000Y-26672371D02*
X75314286Y-26700942D01*
X75314286Y-26700942D02*
X75257143Y-26758085D01*
X75257143Y-26758085D02*
X75228572Y-26815228D01*
X75228572Y-26815228D02*
X75200000Y-26929514D01*
X75200000Y-26929514D02*
X75200000Y-27015228D01*
X75200000Y-27015228D02*
X75228572Y-27129514D01*
X75228572Y-27129514D02*
X75257143Y-27186657D01*
X75257143Y-27186657D02*
X75314286Y-27243800D01*
X75314286Y-27243800D02*
X75400000Y-27272371D01*
X75400000Y-27272371D02*
X75457143Y-27272371D01*
X75457143Y-27272371D02*
X75542857Y-27243800D01*
X75542857Y-27243800D02*
X75571429Y-27215228D01*
X75571429Y-27215228D02*
X75571429Y-27015228D01*
X75571429Y-27015228D02*
X75457143Y-27015228D01*
X75828572Y-27272371D02*
X75828572Y-26672371D01*
X75828572Y-26672371D02*
X76171429Y-27272371D01*
X76171429Y-27272371D02*
X76171429Y-26672371D01*
X76457143Y-27272371D02*
X76457143Y-26672371D01*
X76457143Y-26672371D02*
X76600000Y-26672371D01*
X76600000Y-26672371D02*
X76685714Y-26700942D01*
X76685714Y-26700942D02*
X76742857Y-26758085D01*
X76742857Y-26758085D02*
X76771428Y-26815228D01*
X76771428Y-26815228D02*
X76800000Y-26929514D01*
X76800000Y-26929514D02*
X76800000Y-27015228D01*
X76800000Y-27015228D02*
X76771428Y-27129514D01*
X76771428Y-27129514D02*
X76742857Y-27186657D01*
X76742857Y-27186657D02*
X76685714Y-27243800D01*
X76685714Y-27243800D02*
X76600000Y-27272371D01*
X76600000Y-27272371D02*
X76457143Y-27272371D01*
D10*
X39833333Y-29024819D02*
X39500000Y-28548628D01*
X39261905Y-29024819D02*
X39261905Y-28024819D01*
X39261905Y-28024819D02*
X39642857Y-28024819D01*
X39642857Y-28024819D02*
X39738095Y-28072438D01*
X39738095Y-28072438D02*
X39785714Y-28120057D01*
X39785714Y-28120057D02*
X39833333Y-28215295D01*
X39833333Y-28215295D02*
X39833333Y-28358152D01*
X39833333Y-28358152D02*
X39785714Y-28453390D01*
X39785714Y-28453390D02*
X39738095Y-28501009D01*
X39738095Y-28501009D02*
X39642857Y-28548628D01*
X39642857Y-28548628D02*
X39261905Y-28548628D01*
X40785714Y-29024819D02*
X40214286Y-29024819D01*
X40500000Y-29024819D02*
X40500000Y-28024819D01*
X40500000Y-28024819D02*
X40404762Y-28167676D01*
X40404762Y-28167676D02*
X40309524Y-28262914D01*
X40309524Y-28262914D02*
X40214286Y-28310533D01*
D12*
%TO.C,U1*%
X43500000Y-37420000D02*
X43500000Y-36850000D01*
X43500000Y-39960000D02*
X43500000Y-38940000D01*
X43500000Y-42500000D02*
X43500000Y-41480000D01*
X43500000Y-45040000D02*
X43500000Y-44020000D01*
X43500000Y-47580000D02*
X43500000Y-46560000D01*
X43500000Y-50120000D02*
X43500000Y-49100000D01*
X43500000Y-52660000D02*
X43500000Y-51640000D01*
X43500000Y-54750000D02*
X43500000Y-54180000D01*
X58675000Y-36850000D02*
X43500000Y-36850000D01*
X58675000Y-37420000D02*
X58675000Y-36850000D01*
X58675000Y-39960000D02*
X58675000Y-38940000D01*
X58675000Y-42500000D02*
X58675000Y-41480000D01*
X58675000Y-45040000D02*
X58675000Y-44020000D01*
X58675000Y-47580000D02*
X58675000Y-46560000D01*
X58675000Y-50120000D02*
X58675000Y-49100000D01*
X58675000Y-52660000D02*
X58675000Y-51640000D01*
X58675000Y-54750000D02*
X43500000Y-54750000D01*
X58675000Y-54750000D02*
X58675000Y-54180000D01*
X60115000Y-54180000D02*
X58675000Y-54180000D01*
%TO.C,R2*%
X43762742Y-29477500D02*
X44237258Y-29477500D01*
X43762742Y-30522500D02*
X44237258Y-30522500D01*
%TO.C,U2*%
X21500000Y-23500000D02*
X26500000Y-23500000D01*
X21500000Y-36000000D02*
X21500000Y-23500000D01*
X26500000Y-23500000D02*
X26500000Y-36000000D01*
X26500000Y-36000000D02*
X21500000Y-36000000D01*
%TO.C,C2*%
X51859420Y-29490000D02*
X52140580Y-29490000D01*
X51859420Y-30510000D02*
X52140580Y-30510000D01*
%TO.C,C3*%
X55859420Y-29490000D02*
X56140580Y-29490000D01*
X55859420Y-30510000D02*
X56140580Y-30510000D01*
%TO.C,R3*%
X19477500Y-64237258D02*
X19477500Y-63762742D01*
X20522500Y-64237258D02*
X20522500Y-63762742D01*
%TO.C,U5*%
X21500000Y-47500000D02*
X26500000Y-47500000D01*
X21500000Y-65500000D02*
X21500000Y-47500000D01*
X26500000Y-47500000D02*
X26500000Y-65500000D01*
X26500000Y-65500000D02*
X21500000Y-65500000D01*
%TO.C,J1*%
X73550000Y-56050000D02*
X73550000Y-61250000D01*
X73550000Y-61250000D02*
X80450000Y-61250000D01*
X80450000Y-56050000D02*
X73550000Y-56050000D01*
X80450000Y-61250000D02*
X80450000Y-56050000D01*
%TO.C,R4*%
X69477500Y-64237258D02*
X69477500Y-63762742D01*
X70522500Y-64237258D02*
X70522500Y-63762742D01*
%TO.C,U4*%
X47500000Y-58500000D02*
X52500000Y-58500000D01*
X47500000Y-71000000D02*
X47500000Y-58500000D01*
X52500000Y-58500000D02*
X52500000Y-71000000D01*
X52500000Y-71000000D02*
X47500000Y-71000000D01*
%TO.C,LED2*%
X72315000Y-63040000D02*
X72315000Y-64960000D01*
X72315000Y-64960000D02*
X75000000Y-64960000D01*
X75000000Y-63040000D02*
X72315000Y-63040000D01*
%TO.C,C4*%
X65738748Y-53265000D02*
X66261252Y-53265000D01*
X65738748Y-54735000D02*
X66261252Y-54735000D01*
%TO.C,C1*%
X47859420Y-29490000D02*
X48140580Y-29490000D01*
X47859420Y-30510000D02*
X48140580Y-30510000D01*
%TO.C,LED1*%
X64315000Y-63040000D02*
X64315000Y-64960000D01*
X64315000Y-64960000D02*
X67000000Y-64960000D01*
X67000000Y-63040000D02*
X64315000Y-63040000D01*
%TO.C,U3*%
X73500000Y-23500000D02*
X78500000Y-23500000D01*
X73500000Y-36000000D02*
X73500000Y-23500000D01*
X78500000Y-23500000D02*
X78500000Y-36000000D01*
X78500000Y-36000000D02*
X73500000Y-36000000D01*
%TO.C,R1*%
X39762742Y-29477500D02*
X40237258Y-29477500D01*
X39762742Y-30522500D02*
X40237258Y-30522500D01*
%TD*%
M02*
